<svg version="1.1" id="Layer_1" xmlns="http://www.w3.org/2000/svg" xmlns:xlink="http://www.w3.org/1999/xlink" x="0px" y="0px"
	 width="100%" viewBox="0 0 127 85" enable-background="new 0 0 127 85" xml:space="preserve">
<path fill="#5A6361" opacity="1.000000" stroke="none" 
	d="
M19.000000,86.000000 
	C13.008747,86.000000 7.017494,86.000000 1.019681,86.000000 
	C1.013121,57.716724 1.013121,29.433443 1.013121,1.075080 
	C43.221451,1.075080 85.443069,1.075080 127.832344,1.075080 
	C127.832344,29.332510 127.832344,57.666187 127.832344,86.000000 
	C124.964348,86.000000 121.968742,86.000000 118.516937,85.637619 
	C120.050041,80.428467 123.324699,75.697266 123.772957,70.711929 
	C124.854790,58.680428 124.834961,46.529282 124.786659,34.428265 
	C124.770439,30.365471 123.647247,26.204483 122.384804,22.296829 
	C121.834824,20.594477 119.659431,19.417244 118.017822,17.718571 
	C115.584793,12.878342 111.864342,10.375275 106.897522,9.853696 
	C81.891342,7.227737 56.875225,7.877831 31.851215,9.653739 
	C26.312323,10.046825 22.077135,12.379380 18.739555,17.103992 
	C16.625559,19.994078 13.733842,22.631618 13.269228,25.643560 
	C10.100145,46.187702 7.682490,66.786972 19.000000,86.000000 
z"/>
<path fill="#4B5251" opacity="1.000000" stroke="none" 
	d="
M111.000000,86.000000 
	C83.312439,86.000000 55.624878,86.000000 27.351358,85.685532 
	C24.765812,83.659592 22.336941,82.251976 20.862478,80.168823 
	C18.353426,76.623993 14.491275,73.119446 18.002592,68.357910 
	C19.619452,76.747940 25.785906,79.200356 32.584858,79.641129 
	C57.325687,81.245071 82.096489,81.866440 106.811035,79.104599 
	C113.629387,78.342644 117.482407,74.670296 118.852150,68.319443 
	C119.373444,65.902420 119.727013,63.449223 120.456192,61.179218 
	C121.048637,61.729069 121.638321,62.153324 121.591713,62.489323 
	C120.526405,70.169792 120.857910,78.436020 112.855850,83.249901 
	C111.996696,83.766754 111.607307,85.064499 111.000000,86.000000 
z"/>
<path fill="#565E5C" opacity="1.000000" stroke="none" 
	d="
M17.855253,68.012383 
	C14.491275,73.119446 18.353426,76.623993 20.862478,80.168823 
	C22.336941,82.251976 24.765812,83.659592 26.882702,85.685532 
	C24.629442,86.000000 22.258884,86.000000 19.444164,86.000000 
	C7.682490,66.786972 10.100145,46.187702 13.269228,25.643560 
	C13.733842,22.631618 16.625559,19.994078 18.704319,17.499706 
	C18.009928,22.302284 16.123951,26.797585 16.170275,31.272882 
	C16.297079,43.523884 17.237177,55.766468 17.855253,68.012383 
z"/>
<path fill="#565E5C" opacity="1.000000" stroke="none" 
	d="
M111.437500,86.000000 
	C111.607307,85.064499 111.996696,83.766754 112.855850,83.249901 
	C120.857910,78.436020 120.526405,70.169792 121.591713,62.489323 
	C121.638321,62.153324 121.048637,61.729069 120.383453,60.739132 
	C120.014236,58.466290 120.086258,56.797001 120.008545,55.134712 
	C119.429787,42.756203 118.821358,30.379080 118.222237,18.001522 
	C119.659431,19.417244 121.834824,20.594477 122.384804,22.296829 
	C123.647247,26.204483 124.770439,30.365471 124.786659,34.428265 
	C124.834961,46.529282 124.854790,58.680428 123.772957,70.711929 
	C123.324699,75.697266 120.050041,80.428467 118.030380,85.637619 
	C115.958336,86.000000 113.916664,86.000000 111.437500,86.000000 
z"/>
<path fill="#FEFEFE" opacity="1.000000" stroke="none" 
	d="
M118.017822,17.718569 
	C118.821358,30.379080 119.429787,42.756203 120.008545,55.134712 
	C120.086258,56.797001 120.014236,58.466290 120.084290,60.572426 
	C119.727013,63.449223 119.373444,65.902420 118.852150,68.319443 
	C117.482407,74.670296 113.629387,78.342644 106.811035,79.104599 
	C82.096489,81.866440 57.325687,81.245071 32.584858,79.641129 
	C25.785906,79.200356 19.619452,76.747940 18.002592,68.357910 
	C17.237177,55.766468 16.297079,43.523884 16.170275,31.272882 
	C16.123951,26.797585 18.009928,22.302284 19.049612,17.420399 
	C22.077135,12.379380 26.312323,10.046825 31.851215,9.653739 
	C56.875225,7.877831 81.891342,7.227737 106.897522,9.853696 
	C111.864342,10.375275 115.584793,12.878342 118.017822,17.718569 
M80.348099,47.244507 
	C81.815437,46.383419 83.282768,45.522327 85.142319,44.431072 
	C75.923576,39.209278 67.259155,34.301468 58.171478,29.153912 
	C58.171478,33.068054 58.171478,36.030537 58.025131,39.920841 
	C58.018452,45.824322 57.971519,51.728619 58.090527,57.629562 
	C58.098972,58.048321 59.327396,58.442474 60.668072,58.730824 
	C66.571739,55.210865 72.475410,51.690910 78.902206,48.073483 
	C79.177483,47.860661 79.452751,47.647842 80.348099,47.244507 
z"/>
<path fill="#5A6260" opacity="1.000000" stroke="none" 
	d="
M78.379082,48.170956 
	C72.475410,51.690910 66.571739,55.210865 60.329327,58.331596 
	C60.002628,53.805138 59.999058,49.677788 60.031143,45.550716 
	C60.062744,41.485741 61.873219,39.705296 66.335373,40.993690 
	C67.104538,41.003723 67.544060,41.009102 68.075089,41.340523 
	C69.779663,42.774063 71.392746,43.881569 73.335449,44.993725 
	C74.104576,45.003735 74.544083,45.009094 75.085312,45.351906 
	C76.251053,46.516560 77.315071,47.343758 78.379082,48.170956 
z"/>
<path fill="#4D5453" opacity="1.000000" stroke="none" 
	d="
M74.983589,45.014450 
	C74.544083,45.009094 74.104576,45.003735 73.221344,44.684761 
	C71.179611,43.252258 69.581604,42.133369 67.983589,41.014484 
	C67.544060,41.009102 67.104538,41.003723 66.207581,40.674362 
	C63.726532,37.091690 60.900391,38.313805 58.171478,38.993023 
	C58.171478,36.030537 58.171478,33.068054 58.171478,29.153912 
	C67.259155,34.301468 75.923576,39.209278 85.142319,44.431072 
	C83.282768,45.522327 81.815437,46.383419 79.706726,47.138618 
	C77.704773,46.359966 76.344177,45.687206 74.983589,45.014450 
z"/>
<path fill="#525A58" opacity="1.000000" stroke="none" 
	d="
M58.098305,39.456932 
	C60.900391,38.313805 63.726532,37.091690 65.877945,40.669708 
	C61.873219,39.705296 60.062744,41.485741 60.031143,45.550716 
	C59.999058,49.677788 60.002628,53.805138 59.989563,58.390217 
	C59.327396,58.442474 58.098972,58.048321 58.090527,57.629562 
	C57.971519,51.728619 58.018452,45.824322 58.098305,39.456932 
z"/>
<path fill="#525A58" opacity="1.000000" stroke="none" 
	d="
M75.085312,45.351906 
	C76.344177,45.687206 77.704773,46.359966 79.396690,47.233871 
	C79.452751,47.647842 79.177483,47.860661 78.640640,48.122219 
	C77.315071,47.343758 76.251053,46.516560 75.085312,45.351906 
z"/>
<path fill="#525A58" opacity="1.000000" stroke="none" 
	d="
M68.075089,41.340523 
	C69.581604,42.133369 71.179611,43.252258 72.891724,44.680107 
	C71.392746,43.881569 69.779663,42.774063 68.075089,41.340523 
z"/>
</svg>