<svg version="1.1" id="Layer_1" xmlns="http://www.w3.org/2000/svg" xmlns:xlink="http://www.w3.org/1999/xlink" x="0px" y="0px"
	 width="100%" viewBox="0 0 189 189" enable-background="new 0 0 189 189" xml:space="preserve">
<path fill="#5A6361" opacity="1.000000" stroke="none" 
	d="
M107.000000,190.000000 
	C71.333336,190.000000 36.166672,190.000000 1.000005,190.000000 
	C1.000003,127.000008 1.000003,64.000015 1.000002,1.000013 
	C63.999989,1.000009 126.999977,1.000009 189.999969,1.000004 
	C189.999985,63.999985 189.999985,126.999969 190.000000,189.999969 
	C162.500000,190.000000 135.000000,190.000000 107.000000,190.000000 
M7.000377,116.746300 
	C6.999118,117.497025 6.997859,118.247757 6.563138,119.631851 
	C6.628504,121.895866 6.057958,124.418320 6.856893,126.384216 
	C15.534903,147.737762 31.421715,161.924133 52.501160,170.191467 
	C67.195908,175.954712 70.725891,174.180435 72.277138,158.665604 
	C73.555084,145.884232 72.394203,132.835678 71.857651,119.924500 
	C71.787071,118.226318 69.008018,116.640694 67.240379,114.130066 
	C67.137604,112.527199 67.034828,110.924339 66.913628,109.034149 
	C63.797619,108.803024 60.899792,108.588081 57.997128,107.580589 
	C57.150429,102.327721 59.270290,99.690430 64.640953,98.730209 
	C69.328911,97.892052 72.594788,93.139603 72.711655,88.522476 
	C72.824043,84.082100 72.803696,79.634926 73.047241,75.202026 
	C73.609207,64.973930 80.338326,57.129166 89.294640,56.066116 
	C91.759109,55.773605 94.212639,55.370403 96.682953,55.149403 
	C102.287987,54.647953 106.985031,56.037731 105.105499,63.419918 
	C103.617645,63.449501 102.129913,63.488991 100.641914,63.507019 
	C92.600952,63.604427 90.839409,65.122292 88.923737,73.084366 
	C88.029968,73.721664 86.779510,74.160118 86.296555,75.026436 
	C80.177826,86.002243 86.196686,97.747314 98.471863,98.940598 
	C106.984848,99.768158 106.984848,99.768166 106.094757,108.634003 
	C100.900223,108.634003 95.705681,108.634003 90.255508,108.634003 
	C90.023224,112.564651 89.832657,115.789513 88.904404,119.103134 
	C87.936684,120.931740 86.169998,122.743462 86.130936,124.591690 
	C85.877502,136.583389 85.967667,148.583145 86.009354,160.580048 
	C86.044624,170.732269 89.903954,173.805756 99.869255,171.185471 
	C105.488937,169.707825 110.944725,167.594070 116.447456,165.689209 
	C119.830109,164.518265 121.233879,165.781097 120.929520,169.168991 
	C120.781311,170.818787 120.356293,172.442108 120.098419,174.083984 
	C119.346153,178.873489 121.185829,182.564377 125.031494,185.311890 
	C126.608719,186.438721 128.332596,187.442276 129.888092,184.939957 
	C135.116165,188.719696 138.601700,188.220459 141.920654,183.228577 
	C142.645645,182.138168 143.405685,181.071091 144.803162,180.140747 
	C146.543350,181.590057 148.226334,183.115814 150.037109,184.470825 
	C152.769760,186.515717 155.467926,188.919937 159.985001,186.918457 
	C168.308762,188.190552 171.860916,183.751770 168.838455,175.820374 
	C167.069016,171.177109 165.274765,166.542862 163.439651,161.925232 
	C161.881027,158.003296 163.262253,155.521591 167.099228,154.202805 
	C169.914139,153.235291 172.753265,152.338272 175.568863,151.372711 
	C182.730759,148.916672 184.144897,146.138321 182.329788,138.474594 
	C183.507019,132.580429 179.472168,127.575615 172.660004,127.160461 
	C169.081924,126.942398 165.445724,127.678162 161.812759,127.201691 
	C161.726456,123.853745 161.640167,120.505798 162.277954,116.896103 
	C162.597244,114.306534 162.664276,111.655426 163.278503,109.137810 
	C166.314453,96.693985 165.646698,84.357986 161.850662,72.267563 
	C160.510880,68.000305 160.531158,62.333870 153.965851,60.554485 
	C153.170380,58.721588 152.406311,56.874321 151.574768,55.057938 
	C138.307663,26.077990 107.587006,8.326389 75.654739,11.178490 
	C43.486824,14.051637 16.764668,36.629917 8.634905,67.655296 
	C5.838712,78.326309 5.993417,89.063583 6.718438,100.684891 
	C7.139949,101.781471 7.561460,102.878044 8.243587,104.286827 
	C8.079640,104.759354 7.915695,105.231888 6.820795,106.476959 
	C6.882348,109.649811 6.943901,112.822670 7.000377,116.746300 
z"/>
<path fill="#FDFDFD" opacity="1.000000" stroke="none" 
	d="
M89.642082,119.014366 
	C89.832657,115.789513 90.023224,112.564651 90.255508,108.634003 
	C95.705681,108.634003 100.900223,108.634003 106.963989,108.629074 
	C111.730827,109.362083 113.264702,107.730339 112.756401,103.853462 
	C112.504105,101.929184 112.482956,99.974609 112.487839,97.629807 
	C112.526161,95.830009 112.433876,94.434143 112.481049,92.587387 
	C112.620499,90.235931 112.620499,88.335373 112.620499,86.259178 
	C105.709381,86.259178 99.361282,86.259178 92.653419,86.174850 
	C91.556244,86.045303 90.818832,86.000092 90.041229,85.495743 
	C89.877937,81.026848 89.754845,77.017082 89.631752,73.007324 
	C90.839409,65.122292 92.600952,63.604427 100.641914,63.507019 
	C102.129913,63.488991 103.617645,63.449501 105.949013,63.412857 
	C108.673523,63.405800 110.554527,63.405800 112.891014,63.405800 
	C112.690392,59.090893 112.524994,55.533638 112.489655,51.535984 
	C112.619720,47.826912 112.619720,44.558247 112.619720,41.071121 
	C105.087082,41.071121 98.082542,40.650784 91.146545,41.161411 
	C77.998543,42.129368 67.715385,53.224396 67.332260,66.449516 
	C67.183563,69.643776 67.305832,72.463760 67.115646,75.262512 
	C66.866722,78.925705 66.370949,82.572128 65.520767,86.163612 
	C60.820869,86.101463 56.581573,86.101463 52.226074,86.101463 
	C52.226074,89.453720 52.226074,92.216675 52.090813,95.428047 
	C51.936459,98.315765 52.149200,100.783897 51.850227,103.188408 
	C51.219406,108.261856 53.417271,109.652473 58.001965,108.373138 
	C60.899792,108.588081 63.797619,108.803024 66.913628,109.034149 
	C67.034828,110.924339 67.137604,112.527199 67.245132,115.022011 
	C67.217262,128.858109 67.257004,141.803360 67.056801,154.744919 
	C67.032845,156.293793 65.704193,157.822464 64.615387,159.215454 
	C46.159931,153.621384 29.938932,145.477829 19.631443,128.585403 
	C17.721954,125.456055 15.300361,122.639175 13.181112,119.307281 
	C11.415318,114.525803 9.583534,110.115105 7.751750,105.704414 
	C7.915695,105.231888 8.079640,104.759354 8.264358,103.924881 
	C7.943830,102.334419 7.602532,101.105904 7.261233,99.877396 
	C5.993417,89.063583 5.838712,78.326309 8.634905,67.655296 
	C16.764668,36.629917 43.486824,14.051637 75.654739,11.178490 
	C107.587006,8.326389 138.307663,26.077990 151.574768,55.057938 
	C152.406311,56.874321 153.170380,58.721588 154.204803,61.217064 
	C155.660767,67.920975 156.877792,73.962303 158.022247,80.466141 
	C157.207458,88.605919 156.465256,96.283180 155.373260,103.931740 
	C152.677231,103.582726 150.331024,103.262421 147.549026,102.938530 
	C145.079468,102.941879 143.045700,102.948807 140.776672,102.778305 
	C139.684479,103.060532 138.827499,103.520203 137.689148,104.144547 
	C135.598190,105.860313 133.788620,107.411392 131.669434,109.075882 
	C130.899506,110.122581 130.439209,111.055878 129.990051,111.992554 
	C130.001221,111.995926 129.979843,111.979614 129.679108,112.091980 
	C129.234787,113.474670 129.091171,114.744995 128.944794,116.429436 
	C128.942596,118.223969 128.943192,119.604378 128.752991,121.277893 
	C129.522079,126.237633 128.428391,129.535172 122.561317,129.938553 
	C120.436081,129.939056 118.736198,129.934860 116.755333,129.733917 
	C111.526520,129.464172 108.605865,132.401871 108.052963,138.381500 
	C108.363167,140.161133 108.662865,141.577545 108.805161,143.226013 
	C109.430428,144.308594 110.213097,145.159088 111.179955,146.156281 
	C111.599327,146.513123 111.808083,146.746887 112.070534,147.344009 
	C114.147018,148.795166 116.143364,149.906601 118.468887,151.067841 
	C119.017715,151.149490 119.237366,151.181290 119.221664,151.498657 
	C109.977280,156.794296 100.330940,159.750473 90.059319,160.300873 
	C89.907326,146.236710 89.774704,132.625534 89.642082,119.014366 
z"/>
<path fill="#FBFCFC" opacity="1.000000" stroke="none" 
	d="
M119.457024,151.213089 
	C119.237366,151.181290 119.017715,151.149490 118.351845,150.779053 
	C117.289375,149.961624 116.673126,149.482788 116.046631,148.684021 
	C115.751663,147.581619 115.466927,146.799179 115.160583,145.625381 
	C115.139397,144.191254 115.139809,143.148468 115.329613,141.824402 
	C117.927658,137.035110 121.416954,135.373138 126.514015,136.851990 
	C129.941254,137.846344 133.531342,138.279465 137.460358,139.036469 
	C145.076889,139.153763 152.307770,139.594879 159.478439,139.122253 
	C165.660217,138.714828 171.773422,137.266724 178.117218,136.509033 
	C179.500351,137.516037 180.683212,138.292740 181.866074,139.069443 
	C184.144897,146.138321 182.730759,148.916672 175.568863,151.372711 
	C172.753265,152.338272 169.914139,153.235291 167.099228,154.202805 
	C163.262253,155.521591 161.881027,158.003296 163.439651,161.925232 
	C165.274765,166.542862 167.069016,171.177109 168.838455,175.820374 
	C171.860916,183.751770 168.308762,188.190552 159.417755,186.617203 
	C157.175110,183.795135 155.599747,181.199768 153.794220,178.775879 
	C152.203079,176.639755 150.354828,174.695160 148.620087,172.666000 
	C147.129929,175.108414 145.639755,177.550842 144.149597,179.993271 
	C143.405685,181.071091 142.645645,182.138168 141.920654,183.228577 
	C138.601700,188.220459 135.116165,188.719696 129.544846,184.552032 
	C129.201599,184.164093 128.876450,183.990112 128.794586,183.549866 
	C128.905701,180.859985 128.691025,178.477417 129.372742,176.387207 
	C131.014572,171.353256 133.417160,166.548111 134.789841,161.455765 
	C135.294464,159.583710 134.364197,155.826263 133.053253,155.238800 
	C128.778320,153.323074 124.025803,152.473099 119.457024,151.213089 
z"/>
<path fill="#565E5C" opacity="1.000000" stroke="none" 
	d="
M57.999546,107.976868 
	C53.417271,109.652473 51.219406,108.261856 51.850227,103.188408 
	C52.149200,100.783897 51.936459,98.315765 52.470036,95.392555 
	C55.502968,94.305679 58.016712,93.682175 60.540974,93.104614 
	C64.208832,92.265388 66.154427,90.089935 65.981361,86.225761 
	C66.370949,82.572128 66.866722,78.925705 67.115646,75.262512 
	C67.305832,72.463760 67.183563,69.643776 67.695877,66.358032 
	C69.647514,64.152763 71.248703,62.523540 72.533401,60.674431 
	C77.103096,54.097134 83.469986,50.280510 91.307266,50.179550 
	C98.315834,50.089260 105.341492,51.325470 112.359604,51.976387 
	C112.524994,55.533638 112.690392,59.090893 112.891014,63.405800 
	C110.554527,63.405800 108.673523,63.405800 106.390366,63.282082 
	C106.985031,56.037731 102.287987,54.647953 96.682953,55.149403 
	C94.212639,55.370403 91.759109,55.773605 89.294640,56.066116 
	C80.338326,57.129166 73.609207,64.973930 73.047241,75.202026 
	C72.803696,79.634926 72.824043,84.082100 72.711655,88.522476 
	C72.594788,93.139603 69.328911,97.892052 64.640953,98.730209 
	C59.270290,99.690430 57.150429,102.327721 57.999546,107.976868 
z"/>
<path fill="#565E5C" opacity="1.000000" stroke="none" 
	d="
M64.980270,159.360504 
	C65.704193,157.822464 67.032845,156.293793 67.056801,154.744919 
	C67.257004,141.803360 67.217262,128.858109 67.366646,115.458443 
	C69.008018,116.640694 71.787071,118.226318 71.857651,119.924500 
	C72.394203,132.835678 73.555084,145.884232 72.277138,158.665604 
	C70.725891,174.180435 67.195908,175.954712 52.501160,170.191467 
	C31.421715,161.924133 15.534903,147.737762 6.856893,126.384216 
	C6.057958,124.418320 6.628504,121.895866 7.023582,119.563370 
	C13.694057,134.390732 22.282366,147.535324 35.681515,156.979263 
	C38.164989,158.729660 41.209770,159.683685 44.103477,161.332565 
	C49.377159,164.063858 54.504200,166.558151 59.739788,168.798813 
	C60.841286,169.270218 62.405529,169.057236 63.646099,168.734756 
	C67.906494,167.627197 69.636253,162.913834 66.571434,160.194656 
	C65.851952,160.151932 65.439415,160.144562 65.000580,159.943878 
	C64.974274,159.750595 64.980270,159.360504 64.980270,159.360504 
z"/>
<path fill="#FCFDFD" opacity="1.000000" stroke="none" 
	d="
M161.553864,117.157852 
	C161.640167,120.505798 161.726456,123.853745 161.600983,127.785103 
	C160.655609,129.277298 159.922012,130.186096 158.739044,131.069489 
	C156.173706,131.282791 154.057602,131.722504 151.941818,131.721130 
	C146.400009,131.717545 140.258820,134.041397 136.076233,127.577591 
	C135.886368,126.040726 135.746643,124.924126 135.657104,123.408691 
	C136.402603,115.077690 139.963120,111.454308 149.585602,109.341827 
	C151.568192,110.010735 153.263794,110.516373 155.261322,111.140121 
	C156.985458,112.198936 158.407669,113.139648 159.874786,114.386734 
	C160.464417,115.514687 161.009140,116.336273 161.553864,117.157852 
z"/>
<path fill="#535B59" opacity="1.000000" stroke="none" 
	d="
M128.876450,183.990112 
	C128.876450,183.990112 129.201599,184.164093 129.220245,184.347534 
	C128.332596,187.442276 126.608719,186.438721 125.031494,185.311890 
	C121.185829,182.564377 119.346153,178.873489 120.098419,174.083984 
	C120.356293,172.442108 120.781311,170.818787 120.929520,169.168991 
	C121.233879,165.781097 119.830109,164.518265 116.447456,165.689209 
	C110.944725,167.594070 105.488937,169.707825 99.869255,171.185471 
	C89.903954,173.805756 86.044624,170.732269 86.009354,160.580048 
	C85.967667,148.583145 85.877502,136.583389 86.130936,124.591690 
	C86.169998,122.743462 87.936684,120.931740 89.273239,119.058746 
	C89.774704,132.625534 89.907326,146.236710 90.045090,160.723907 
	C90.482285,167.356659 92.536171,169.265732 98.516045,167.688232 
	C105.499702,165.845932 112.201271,162.950470 119.070305,160.646332 
	C120.828369,160.056580 122.756340,159.973373 124.606255,159.657440 
	C124.730598,161.634262 125.140297,163.643631 124.919250,165.581039 
	C124.473930,169.484116 123.285484,173.334808 123.156502,177.232010 
	C123.039543,180.765961 124.633598,183.719116 128.876450,183.990112 
z"/>
<path fill="#555E5C" opacity="1.000000" stroke="none" 
	d="
M89.277740,73.045845 
	C89.754845,77.017082 89.877937,81.026848 89.821404,85.783600 
	C88.896576,91.606094 91.533264,94.313797 97.073975,95.047798 
	C102.210106,95.728203 107.266006,97.014336 112.357239,98.033737 
	C112.482956,99.974609 112.504105,101.929184 112.756401,103.853462 
	C113.264702,107.730339 111.730827,109.362083 107.416077,108.502739 
	C106.984848,99.768166 106.984848,99.768158 98.471863,98.940598 
	C86.196686,97.747314 80.177826,86.002243 86.296555,75.026436 
	C86.779510,74.160118 88.029968,73.721664 89.277740,73.045845 
z"/>
<path fill="#575F5D" opacity="1.000000" stroke="none" 
	d="
M161.915909,117.026978 
	C161.009140,116.336273 160.464417,115.514687 160.155334,114.196259 
	C160.611557,103.877869 160.953796,94.055878 160.916840,84.235321 
	C160.911514,82.821236 159.080795,81.414032 158.094818,80.003632 
	C156.877792,73.962303 155.660767,67.920975 154.424973,61.458366 
	C160.531158,62.333870 160.510880,68.000305 161.850662,72.267563 
	C165.646698,84.357986 166.314453,96.693985 163.278503,109.137810 
	C162.664276,111.655426 162.597244,114.306534 161.915909,117.026978 
z"/>
<path fill="#535C5A" opacity="1.000000" stroke="none" 
	d="
M43.995491,161.005249 
	C41.209770,159.683685 38.164989,158.729660 35.681515,156.979263 
	C22.282366,147.535324 13.694057,134.390732 7.240314,119.246681 
	C6.997859,118.247757 6.999118,117.497025 7.336100,116.484787 
	C8.471849,117.597084 9.263327,118.975952 10.073523,120.343727 
	C12.377429,124.233200 14.688969,128.118149 16.998747,132.253418 
	C16.999992,132.501968 17.003275,132.999054 17.088940,133.290833 
	C17.781656,134.057510 18.388712,134.532410 18.996996,135.255264 
	C18.998224,135.503235 19.002676,135.999161 19.088673,136.290817 
	C19.781816,137.057236 20.388966,137.532013 21.118206,138.257675 
	C21.494329,139.005447 21.748360,139.502319 22.071495,140.330597 
	C23.426167,141.776260 24.711731,142.890549 26.222767,144.239594 
	C28.298002,146.316528 30.147766,148.158707 32.070114,150.336975 
	C34.762173,152.780853 37.381653,154.888657 40.249832,156.998260 
	C40.498531,157.000046 40.995937,157.002182 41.083946,157.293274 
	C41.782162,158.054398 42.392372,158.524414 43.001289,158.997223 
	C43.000000,159.000000 43.004879,158.996872 43.125389,159.249084 
	C43.497662,160.000381 43.749432,160.499451 44.000534,160.999329 
	C43.999866,161.000137 43.995491,161.005249 43.995491,161.005249 
z"/>
<path fill="#535C5A" opacity="1.000000" stroke="none" 
	d="
M159.188416,131.094879 
	C159.922012,130.186096 160.655609,129.277298 161.612488,128.175873 
	C165.445724,127.678162 169.081924,126.942398 172.660004,127.160461 
	C179.472168,127.575615 183.507019,132.580429 182.097931,138.772018 
	C180.683212,138.292740 179.500351,137.516037 178.065475,136.140045 
	C175.677414,130.675705 171.546600,130.873306 167.306442,131.441895 
	C164.373703,131.835190 161.453568,132.322357 158.637970,132.485123 
	C158.894913,131.833420 159.041656,131.464142 159.188416,131.094879 
z"/>
<path fill="#535C5A" opacity="1.000000" stroke="none" 
	d="
M144.476379,180.067017 
	C145.639755,177.550842 147.129929,175.108414 148.620087,172.666000 
	C150.354828,174.695160 152.203079,176.639755 153.794220,178.775879 
	C155.599747,181.199768 157.175110,183.795135 159.069763,186.599579 
	C155.467926,188.919937 152.769760,186.515717 150.037109,184.470825 
	C148.226334,183.115814 146.543350,181.590057 144.476379,180.067017 
z"/>
<path fill="#4C5452" opacity="1.000000" stroke="none" 
	d="
M16.997501,132.004883 
	C14.688969,128.118149 12.377429,124.233200 10.073523,120.343727 
	C9.263327,118.975952 8.471849,117.597084 7.338638,116.109406 
	C6.943901,112.822670 6.882348,109.649811 7.286273,106.090683 
	C9.583534,110.115105 11.415318,114.525803 13.177263,119.709579 
	C14.404118,124.323402 15.700810,128.164139 16.997501,132.004883 
z"/>
<path fill="#535C5A" opacity="1.000000" stroke="none" 
	d="
M6.989836,100.281143 
	C7.602532,101.105904 7.943830,102.334419 8.134050,103.768776 
	C7.561460,102.878044 7.139949,101.781471 6.989836,100.281143 
z"/>
<path fill="#49514F" opacity="1.000000" stroke="none" 
	d="
M128.794586,183.549866 
	C124.633598,183.719116 123.039543,180.765961 123.156502,177.232010 
	C123.285484,173.334808 124.473930,169.484116 124.919250,165.581039 
	C125.140297,163.643631 124.730598,161.634262 124.606255,159.657440 
	C122.756340,159.973373 120.828369,160.056580 119.070305,160.646332 
	C112.201271,162.950470 105.499702,165.845932 98.516045,167.688232 
	C92.536171,169.265732 90.482285,167.356659 90.064468,161.176910 
	C100.330940,159.750473 109.977280,156.794296 119.221664,151.498657 
	C124.025803,152.473099 128.778320,153.323074 133.053253,155.238800 
	C134.364197,155.826263 135.294464,159.583710 134.789841,161.455765 
	C133.417160,166.548111 131.014572,171.353256 129.372742,176.387207 
	C128.691025,178.477417 128.905701,180.859985 128.794586,183.549866 
z"/>
<path fill="#4A514F" opacity="1.000000" stroke="none" 
	d="
M112.489662,51.535984 
	C105.341492,51.325470 98.315834,50.089260 91.307266,50.179550 
	C83.469986,50.280510 77.103096,54.097134 72.533401,60.674431 
	C71.248703,62.523540 69.647514,64.152763 67.827866,65.974319 
	C67.715385,53.224396 77.998543,42.129368 91.146545,41.161411 
	C98.082542,40.650784 105.087082,41.071121 112.619720,41.071121 
	C112.619720,44.558247 112.619720,47.826912 112.489662,51.535984 
z"/>
<path fill="#4A5150" opacity="1.000000" stroke="none" 
	d="
M16.998749,132.253418 
	C15.700810,128.164139 14.404118,124.323402 13.111273,120.080368 
	C15.300361,122.639175 17.721954,125.456055 19.631443,128.585403 
	C29.938932,145.477829 46.159931,153.621384 64.615387,159.215454 
	C64.980270,159.360504 64.974274,159.750595 64.966553,160.297150 
	C63.967274,164.674026 61.409286,165.298981 58.054085,164.163940 
	C53.030003,162.464294 48.020554,160.721375 43.004883,158.996857 
	C43.004879,158.996872 43.000000,159.000000 42.913361,158.706329 
	C42.216461,157.942505 41.606201,157.472336 40.995941,157.002182 
	C40.995937,157.002182 40.498531,157.000046 40.177204,156.662537 
	C37.236427,154.216980 34.616978,152.108932 31.997530,150.000900 
	C30.147766,148.158707 28.298002,146.316528 26.153900,143.907715 
	C24.573839,142.227112 23.288115,141.113159 22.002392,139.999191 
	C21.748360,139.502319 21.494329,139.005447 21.032827,137.965332 
	C20.217796,136.947784 19.610235,136.473480 19.002676,135.999161 
	C19.002676,135.999161 18.998224,135.503235 18.911808,134.962860 
	C18.218019,133.947998 17.610649,133.473526 17.003277,132.999054 
	C17.003275,132.999054 16.999992,132.501968 16.998749,132.253418 
z"/>
<path fill="#535B59" opacity="1.000000" stroke="none" 
	d="
M158.022247,80.466141 
	C159.080795,81.414032 160.911514,82.821236 160.916840,84.235321 
	C160.953796,94.055878 160.611557,103.877869 160.110413,113.889877 
	C158.407669,113.139648 156.985458,112.198936 155.137100,110.754105 
	C154.834503,109.185333 154.958069,108.120667 155.249878,106.778275 
	C155.519775,105.653847 155.621414,104.807144 155.723053,103.960449 
	C156.465256,96.283180 157.207458,88.605919 158.022247,80.466141 
z"/>
<path fill="#464C4B" opacity="1.000000" stroke="none" 
	d="
M93.013184,86.259178 
	C99.361282,86.259178 105.709381,86.259178 112.620499,86.259178 
	C112.620499,88.335373 112.620499,90.235931 112.026031,92.577148 
	C107.176437,92.674004 102.926498,92.174690 98.664627,92.032166 
	C94.766823,91.901802 92.840523,90.198570 93.013184,86.259178 
z"/>
<path fill="#49514F" opacity="1.000000" stroke="none" 
	d="
M65.520767,86.163612 
	C66.154427,90.089935 64.208832,92.265388 60.540974,93.104614 
	C58.016712,93.682175 55.502968,94.305679 52.605301,94.944145 
	C52.226074,92.216675 52.226074,89.453720 52.226074,86.101463 
	C56.581573,86.101463 60.820869,86.101463 65.520767,86.163612 
z"/>
<path fill="#4C5452" opacity="1.000000" stroke="none" 
	d="
M92.653419,86.174850 
	C92.840523,90.198570 94.766823,91.901802 98.664627,92.032166 
	C102.926498,92.174690 107.176437,92.674004 111.886581,93.028038 
	C112.433876,94.434143 112.526161,95.830009 112.487839,97.629807 
	C107.266006,97.014336 102.210106,95.728203 97.073975,95.047798 
	C91.533264,94.313797 88.896576,91.606094 89.861603,86.242737 
	C90.818832,86.000092 91.556244,86.045303 92.653419,86.174850 
z"/>
<path fill="#E3E3E3" opacity="1.000000" stroke="none" 
	d="
M141.011917,102.955742 
	C143.045700,102.948807 145.079468,102.941879 147.778381,103.157135 
	C149.305756,104.221230 150.168015,105.063141 150.626160,105.852158 
	C137.138199,102.866081 129.438126,110.286240 131.839005,123.496819 
	C131.986954,124.310890 131.975342,125.153961 131.755432,125.799423 
	C130.629852,124.071800 129.786819,122.528297 128.943787,120.984787 
	C128.943192,119.604378 128.942596,118.223969 129.167114,116.151077 
	C129.588104,114.298943 129.783966,113.139275 129.979843,111.979614 
	C129.979843,111.979614 130.001221,111.995926 130.258530,111.823822 
	C131.003571,110.755295 131.491318,109.858887 131.979050,108.962479 
	C133.788620,107.411392 135.598190,105.860313 138.022369,104.136032 
	C139.428635,103.627136 140.220276,103.291435 141.011917,102.955742 
z"/>
<path fill="#EAEAEA" opacity="1.000000" stroke="none" 
	d="
M128.752991,121.277893 
	C129.786819,122.528297 130.629852,124.071800 131.775742,126.016594 
	C132.078598,126.417877 132.119812,126.851868 132.093414,127.224350 
	C132.074188,130.154129 131.287552,131.692200 128.244598,131.160934 
	C127.244942,130.986404 126.095955,131.667084 124.684120,131.957947 
	C123.912315,131.938843 123.471642,131.918457 123.025902,131.571091 
	C123.009445,130.807358 122.998062,130.370605 122.986679,129.933868 
	C128.428391,129.535172 129.522079,126.237633 128.752991,121.277893 
z"/>
<path fill="#E3E3E3" opacity="1.000000" stroke="none" 
	d="
M115.182190,146.016724 
	C115.466927,146.799179 115.751663,147.581619 115.758911,148.522629 
	C114.317749,148.122208 113.154076,147.563232 111.990402,147.004272 
	C111.808083,146.746887 111.599327,146.513123 111.123825,145.843719 
	C110.243202,144.587646 109.602890,143.790787 108.962570,142.993942 
	C108.662865,141.577545 108.363167,140.161133 108.396149,138.378723 
	C109.187523,138.010056 109.646217,138.007431 110.298286,138.286972 
	C112.055168,141.051682 113.618683,143.534195 115.182190,146.016724 
z"/>
<path fill="#EAEAEA" opacity="1.000000" stroke="none" 
	d="
M110.104919,138.004791 
	C109.646217,138.007431 109.187523,138.010056 108.385643,138.015472 
	C108.605865,132.401871 111.526520,129.464172 116.514153,129.955521 
	C115.378418,131.269974 114.202881,132.166077 112.745407,133.242722 
	C111.677292,134.950455 110.891106,136.477615 110.104919,138.004791 
z"/>
<path fill="#EAEAEA" opacity="1.000000" stroke="none" 
	d="
M151.030289,105.905045 
	C150.168015,105.063141 149.305756,104.221230 148.214142,103.160721 
	C150.331024,103.262421 152.677231,103.582726 155.373260,103.931740 
	C155.621414,104.807144 155.519775,105.653847 154.921082,106.650040 
	C153.292786,106.501373 152.161545,106.203209 151.030289,105.905045 
z"/>
<path fill="#E3E3E3" opacity="1.000000" stroke="none" 
	d="
M113.027336,133.062164 
	C114.202881,132.166077 115.378418,131.269974 116.795143,130.152283 
	C118.736198,129.934860 120.436081,129.939056 122.561317,129.938553 
	C122.998062,130.370605 123.009445,130.807358 122.591797,131.599152 
	C119.117615,132.323517 116.072479,132.692841 113.027336,133.062164 
z"/>
<path fill="#EAEAEA" opacity="1.000000" stroke="none" 
	d="
M112.070541,147.343994 
	C113.154076,147.563232 114.317749,148.122208 115.769150,148.842575 
	C116.673126,149.482788 117.289375,149.961624 118.022675,150.729233 
	C116.143364,149.906601 114.147018,148.795166 112.070541,147.343994 
z"/>
<path fill="#EAEAEA" opacity="1.000000" stroke="none" 
	d="
M129.679108,112.091980 
	C129.783966,113.139275 129.588104,114.298943 129.169907,115.736954 
	C129.091171,114.744995 129.234787,113.474670 129.679108,112.091980 
z"/>
<path fill="#EAEAEA" opacity="1.000000" stroke="none" 
	d="
M108.805161,143.226013 
	C109.602890,143.790787 110.243202,144.587646 110.939636,145.697052 
	C110.213097,145.159088 109.430428,144.308594 108.805161,143.226013 
z"/>
<path fill="#EAEAEA" opacity="1.000000" stroke="none" 
	d="
M140.776672,102.778305 
	C140.220276,103.291435 139.428635,103.627136 138.303772,103.971344 
	C138.827499,103.520203 139.684479,103.060532 140.776672,102.778305 
z"/>
<path fill="#EAEAEA" opacity="1.000000" stroke="none" 
	d="
M131.669434,109.075882 
	C131.491318,109.858887 131.003571,110.755295 130.247375,111.820442 
	C130.439209,111.055878 130.899506,110.122581 131.669434,109.075882 
z"/>
<path fill="#464C4B" opacity="1.000000" stroke="none" 
	d="
M158.527802,132.767563 
	C161.453568,132.322357 164.373703,131.835190 167.306442,131.441895 
	C171.546600,130.873306 175.677414,130.675705 177.865204,135.909744 
	C171.773422,137.266724 165.660217,138.714828 159.478439,139.122253 
	C152.307770,139.594879 145.076889,139.153763 137.464203,138.737183 
	C137.621948,137.557938 138.187622,136.750809 139.003540,135.773453 
	C139.836670,135.045532 140.419525,134.487839 141.381836,133.999939 
	C147.625000,137.174774 153.182343,136.335190 158.527802,132.767563 
z"/>
<path fill="#CBCBCB" opacity="1.000000" stroke="none" 
	d="
M141.002380,133.930115 
	C140.419525,134.487839 139.836670,135.045532 138.580750,135.778381 
	C135.941895,135.806870 133.978333,135.607834 132.009872,135.523895 
	C127.265907,135.321625 122.511017,134.950455 117.779396,135.133957 
	C116.289307,135.191742 114.233055,136.493484 113.607712,137.790756 
	C113.141434,138.758057 114.560669,140.634247 115.140213,142.105682 
	C115.139809,143.148468 115.139397,144.191254 115.160591,145.625381 
	C113.618683,143.534195 112.055168,141.051682 110.298286,138.286972 
	C110.891106,136.477615 111.677292,134.950455 112.745407,133.242722 
	C116.072479,132.692841 119.117615,132.323517 122.596863,131.926147 
	C123.471642,131.918457 123.912315,131.938843 124.996979,132.186401 
	C130.761444,132.919098 135.881912,133.424606 141.002380,133.930115 
z"/>
<path fill="#B7B7B7" opacity="1.000000" stroke="none" 
	d="
M115.329613,141.824402 
	C114.560669,140.634247 113.141434,138.758057 113.607712,137.790756 
	C114.233055,136.493484 116.289307,135.191742 117.779396,135.133957 
	C122.511017,134.950455 127.265907,135.321625 132.009872,135.523895 
	C133.978333,135.607834 135.941895,135.806870 138.330490,135.948608 
	C138.187622,136.750809 137.621948,137.557938 137.052429,138.664368 
	C133.531342,138.279465 129.941254,137.846344 126.514015,136.851990 
	C121.416954,135.373138 117.927658,137.035110 115.329613,141.824402 
z"/>
<path fill="#535C5A" opacity="1.000000" stroke="none" 
	d="
M66.878380,160.230011 
	C69.636253,162.913834 67.906494,167.627197 63.646099,168.734756 
	C62.405529,169.057236 60.841286,169.270218 59.739788,168.798813 
	C54.504200,166.558151 49.377159,164.063858 44.103477,161.332565 
	C43.995491,161.005249 43.999866,161.000137 44.365593,161.069183 
	C48.897213,162.787903 53.066677,164.428635 57.228104,166.089523 
	C62.580193,168.225616 66.279022,165.985672 66.878380,160.230011 
z"/>
<path fill="#4C5452" opacity="1.000000" stroke="none" 
	d="
M66.571434,160.194656 
	C66.279022,165.985672 62.580193,168.225616 57.228104,166.089523 
	C53.066677,164.428635 48.897213,162.787903 44.366261,161.068359 
	C43.749432,160.499451 43.497662,160.000381 43.125389,159.249084 
	C48.020554,160.721375 53.030003,162.464294 58.054085,164.163940 
	C61.409286,165.298981 63.967274,164.674026 64.992859,160.490448 
	C65.439415,160.144562 65.851952,160.151932 66.571434,160.194656 
z"/>
<path fill="#E3E3E3" opacity="1.000000" stroke="none" 
	d="
M141.381836,133.999939 
	C135.881912,133.424606 130.761444,132.919098 125.328110,132.185135 
	C126.095955,131.667084 127.244942,130.986404 128.244598,131.160934 
	C131.287552,131.692200 132.074188,130.154129 132.423431,127.321365 
	C133.895370,127.363228 135.010880,127.680550 136.126373,127.997871 
	C140.258820,134.041397 146.400009,131.717545 151.941818,131.721130 
	C154.057602,131.722504 156.173706,131.282791 158.739044,131.069489 
	C159.041656,131.464142 158.894913,131.833420 158.637970,132.485123 
	C153.182343,136.335190 147.625000,137.174774 141.381836,133.999939 
z"/>
<path fill="#CBCBCB" opacity="1.000000" stroke="none" 
	d="
M136.076233,127.577591 
	C135.010880,127.680550 133.895370,127.363228 132.449844,126.948883 
	C132.119812,126.851868 132.078598,126.417877 132.058289,126.200706 
	C131.975342,125.153961 131.986954,124.310890 131.839005,123.496819 
	C129.438126,110.286240 137.138199,102.866081 150.626160,105.852158 
	C152.161545,106.203209 153.292786,106.501373 154.752838,106.927773 
	C154.958069,108.120667 154.834503,109.185333 154.835175,110.636002 
	C153.263794,110.516373 151.568192,110.010735 149.329987,109.036713 
	C144.228607,106.097023 139.266357,107.379929 135.516602,111.999260 
	C132.294006,115.969185 132.324921,120.008995 135.606934,123.807533 
	C135.746643,124.924126 135.886368,126.040726 136.076233,127.577591 
z"/>
<path fill="#B0B0B0" opacity="1.000000" stroke="none" 
	d="
M135.657104,123.408691 
	C132.324921,120.008995 132.294006,115.969185 135.516602,111.999260 
	C139.266357,107.379929 144.228607,106.097023 149.042999,108.873444 
	C139.963120,111.454308 136.402603,115.077690 135.657104,123.408691 
z"/>
<path fill="#4C5452" opacity="1.000000" stroke="none" 
	d="
M32.070114,150.336975 
	C34.616978,152.108932 37.236427,154.216980 39.928505,156.660736 
	C37.381653,154.888657 34.762173,152.780853 32.070114,150.336975 
z"/>
<path fill="#4C5452" opacity="1.000000" stroke="none" 
	d="
M22.071497,140.330597 
	C23.288115,141.113159 24.573839,142.227112 25.928429,143.672958 
	C24.711731,142.890549 23.426167,141.776260 22.071497,140.330597 
z"/>
<path fill="#4C5452" opacity="1.000000" stroke="none" 
	d="
M19.088673,136.290817 
	C19.610235,136.473480 20.217796,136.947784 20.910736,137.714447 
	C20.388966,137.532013 19.781816,137.057236 19.088673,136.290817 
z"/>
<path fill="#4C5452" opacity="1.000000" stroke="none" 
	d="
M17.088940,133.290833 
	C17.610649,133.473526 18.218019,133.947998 18.910580,134.714874 
	C18.388712,134.532410 17.781656,134.057510 17.088940,133.290833 
z"/>
<path fill="#4C5452" opacity="1.000000" stroke="none" 
	d="
M41.083946,157.293274 
	C41.606201,157.472336 42.216461,157.942505 42.914650,158.703552 
	C42.392372,158.524414 41.782162,158.054398 41.083946,157.293274 
z"/>
</svg>