<svg width="34" height="38" viewBox="0 0 34 38" fill="none" xmlns="http://www.w3.org/2000/svg">
<g id="Group">
<path id="Vector" d="M17 0.833984C26.205 0.833984 33.6667 8.29565 33.6667 17.5007C33.6667 26.7057 26.205 34.1673 17 34.1673C7.79504 34.1673 0.333374 26.7057 0.333374 17.5007C0.333374 8.29565 7.79504 0.833984 17 0.833984ZM17 4.16732C13.4638 4.16732 10.0724 5.57208 7.57195 8.07256C5.07147 10.573 3.66671 13.9644 3.66671 17.5007C3.66671 21.0369 5.07147 24.4283 7.57195 26.9287C10.0724 29.4292 13.4638 30.834 17 30.834C20.5363 30.834 23.9276 29.4292 26.4281 26.9287C28.9286 24.4283 30.3334 21.0369 30.3334 17.5007C30.3334 13.9644 28.9286 10.573 26.4281 8.07256C23.9276 5.57208 20.5363 4.16732 17 4.16732ZM17 7.50065C17.4083 7.5007 17.8023 7.65058 18.1073 7.92184C18.4124 8.19311 18.6073 8.5669 18.655 8.97232L18.6667 9.16732V16.8107L23.1784 21.3223C23.4773 21.6222 23.6508 22.0247 23.6638 22.448C23.6767 22.8712 23.528 23.2835 23.248 23.6011C22.9679 23.9187 22.5775 24.1178 22.1559 24.158C21.7344 24.1981 21.3134 24.0763 20.9784 23.8173L20.8217 23.679L15.8217 18.679C15.5627 18.4197 15.3963 18.0823 15.3484 17.719L15.3334 17.5007V9.16732C15.3334 8.72529 15.509 8.30137 15.8215 7.98881C16.1341 7.67625 16.558 7.50065 17 7.50065Z" fill="white"/>
</g>
</svg>
