<svg width="87" height="87" viewBox="0 0 87 87" fill="none" xmlns="http://www.w3.org/2000/svg">
<g clip-path="url(#clip0_881_1569)">
<g filter="url(#filter0_d_881_1569)">
<path d="M76.7412 7.46757C74.1431 7.01833 71.5117 6.78794 68.875 6.77882C59.8791 6.77145 51.0708 9.35103 43.5 14.2101C35.9098 9.41483 27.1029 6.89856 18.125 6.96007C15.4883 6.96919 12.8569 7.19958 10.2588 7.64882C9.40763 7.79556 8.63686 8.24136 8.08525 8.90595C7.53364 9.57054 7.23745 10.4102 7.25 11.2738V54.7738C7.24224 55.3065 7.35196 55.8343 7.57136 56.3197C7.79076 56.8051 8.11444 57.2362 8.51938 57.5823C8.92432 57.9284 9.40056 58.181 9.91422 58.3221C10.4279 58.4632 10.9663 58.4894 11.4913 58.3988C16.6859 57.4994 22.0081 57.6486 27.1442 58.8377C32.2804 60.0268 37.1266 62.2317 41.3975 65.3226L41.8325 65.5763H42.2312C42.6328 65.7458 43.0642 65.8331 43.5 65.8331C43.9358 65.8331 44.3672 65.7458 44.7688 65.5763H45.1675L45.6025 65.3226C49.8436 62.1626 54.6759 59.8863 59.813 58.6285C64.9502 57.3707 70.2875 57.157 75.5087 58.0001C76.0337 58.0907 76.5721 58.0645 77.0858 57.9234C77.5994 57.7822 78.0757 57.5296 78.4806 57.1835C78.8856 56.8374 79.2092 56.4063 79.4286 55.9209C79.648 55.4355 79.7578 54.9077 79.75 54.3751V10.8751C79.7123 10.0491 79.3933 9.2609 78.8461 8.64112C78.2988 8.02135 77.5562 7.60727 76.7412 7.46757ZM39.875 55.6438C33.1668 52.1197 25.7026 50.2785 18.125 50.2788H14.5V14.0288C15.7074 13.9616 16.9176 13.9616 18.125 14.0288C25.8585 14.0203 33.4233 16.2897 39.875 20.5538V55.6438ZM72.5 50.4238H68.875C61.2974 50.4235 53.8332 52.2647 47.125 55.7888V20.5538C53.5767 16.2897 61.1415 14.0203 68.875 14.0288C70.0824 13.9616 71.2926 13.9616 72.5 14.0288V50.4238ZM76.7412 65.4676C74.1431 65.0183 71.5117 64.7879 68.875 64.7788C59.8791 64.7715 51.0708 67.351 43.5 72.2101C35.9292 67.351 27.1209 64.7715 18.125 64.7788C15.4883 64.7879 12.8569 65.0183 10.2588 65.4676C9.78688 65.5425 9.33446 65.7099 8.92752 65.9602C8.52057 66.2106 8.16713 66.5389 7.88752 66.9263C7.60791 67.3137 7.40764 67.7526 7.29823 68.2177C7.18882 68.6828 7.17243 69.1649 7.25 69.6363C7.43422 70.5777 7.98403 71.4076 8.77899 71.9444C9.57395 72.4812 10.5493 72.681 11.4913 72.5001C16.6859 71.6007 22.0081 71.7499 27.1442 72.939C32.2804 74.1281 37.1266 76.333 41.3975 79.4238C42.0114 79.8609 42.7463 80.0958 43.5 80.0958C44.2537 80.0958 44.9886 79.8609 45.6025 79.4238C49.8734 76.333 54.7196 74.1281 59.8558 72.939C64.9919 71.7499 70.314 71.6007 75.5087 72.5001C76.4507 72.681 77.426 72.4812 78.221 71.9444C79.016 71.4076 79.5658 70.5777 79.75 69.6363C79.8276 69.1649 79.8112 68.6828 79.7018 68.2177C79.5924 67.7526 79.3921 67.3137 79.1125 66.9263C78.8329 66.5389 78.4794 66.2106 78.0725 65.9602C77.6655 65.7099 77.2131 65.5425 76.7412 65.4676Z" fill="white"/>
</g>
</g>
<defs>
<filter id="filter0_d_881_1569" x="3.2019" y="6.77881" width="80.5962" height="81.3169" filterUnits="userSpaceOnUse" color-interpolation-filters="sRGB">
<feFlood flood-opacity="0" result="BackgroundImageFix"/>
<feColorMatrix in="SourceAlpha" type="matrix" values="0 0 0 0 0 0 0 0 0 0 0 0 0 0 0 0 0 0 127 0" result="hardAlpha"/>
<feOffset dy="4"/>
<feGaussianBlur stdDeviation="2"/>
<feComposite in2="hardAlpha" operator="out"/>
<feColorMatrix type="matrix" values="0 0 0 0 0 0 0 0 0 0 0 0 0 0 0 0 0 0 0.25 0"/>
<feBlend mode="normal" in2="BackgroundImageFix" result="effect1_dropShadow_881_1569"/>
<feBlend mode="normal" in="SourceGraphic" in2="effect1_dropShadow_881_1569" result="shape"/>
</filter>
<clipPath id="clip0_881_1569">
<rect width="87" height="87" fill="white"/>
</clipPath>
</defs>
</svg>
