<svg width="100" height="100" viewBox="0 0 100 100" fill="none" xmlns="http://www.w3.org/2000/svg">
<g filter="url(#filter0_i_881_1652)">
<path d="M41.6667 62.5002L63.2917 50.0002L41.6667 37.5002V62.5002ZM89.8334 29.8752C90.375 31.8335 90.75 34.4585 91 37.7918C91.2917 41.1252 91.4167 44.0002 91.4167 46.5002L91.6667 50.0002C91.6667 59.1252 91 65.8335 89.8334 70.1252C88.7917 73.8752 86.375 76.2918 82.625 77.3335C80.6667 77.8752 77.0834 78.2502 71.5834 78.5002C66.1667 78.7918 61.2084 78.9168 56.625 78.9168L50 79.1668C32.5417 79.1668 21.6667 78.5002 17.375 77.3335C13.625 76.2918 11.2084 73.8752 10.1667 70.1252C9.62504 68.1668 9.25004 65.5418 9.00004 62.2085C8.70837 58.8752 8.58337 56.0002 8.58337 53.5002L8.33337 50.0002C8.33337 40.8752 9.00004 34.1668 10.1667 29.8752C11.2084 26.1252 13.625 23.7085 17.375 22.6668C19.3334 22.1252 22.9167 21.7502 28.4167 21.5002C33.8334 21.2085 38.7917 21.0835 43.375 21.0835L50 20.8335C67.4584 20.8335 78.3334 21.5002 82.625 22.6668C86.375 23.7085 88.7917 26.1252 89.8334 29.8752Z" fill="white"/>
</g>
<defs>
<filter id="filter0_i_881_1652" x="8.33337" y="20.8335" width="83.3334" height="62.3335" filterUnits="userSpaceOnUse" color-interpolation-filters="sRGB">
<feFlood flood-opacity="0" result="BackgroundImageFix"/>
<feBlend mode="normal" in="SourceGraphic" in2="BackgroundImageFix" result="shape"/>
<feColorMatrix in="SourceAlpha" type="matrix" values="0 0 0 0 0 0 0 0 0 0 0 0 0 0 0 0 0 0 127 0" result="hardAlpha"/>
<feOffset dy="4"/>
<feGaussianBlur stdDeviation="2"/>
<feComposite in2="hardAlpha" operator="arithmetic" k2="-1" k3="1"/>
<feColorMatrix type="matrix" values="0 0 0 0 0 0 0 0 0 0 0 0 0 0 0 0 0 0 0.25 0"/>
<feBlend mode="normal" in2="shape" result="effect1_innerShadow_881_1652"/>
</filter>
</defs>
</svg>
