<svg width="90" height="89" viewBox="0 0 90 89" fill="none" xmlns="http://www.w3.org/2000/svg">
<g clip-path="url(#clip0_2061_6740)">
<g filter="url(#filter0_d_2061_6740)">
<path d="M74.5 36.5915C74.5 16.393 57.924 0 37.5 0C17.076 0 0.5 16.393 0.5 36.5915C0.5 54.3018 13.228 69.0481 30.1 72.4511V47.5689H22.7V36.5915H30.1V27.4436C30.1 20.3815 35.909 14.6366 43.05 14.6366H52.3V25.614H44.9C42.865 25.614 41.2 27.2607 41.2 29.2732V36.5915H52.3V47.5689H41.2V73C59.885 71.1704 74.5 55.5825 74.5 36.5915Z" fill="white"/>
</g>
<g filter="url(#filter1_d_2061_6740)">
<path d="M71.4997 72.5C69.5722 72.5 67.7085 71.6394 66.2498 70.0775C64.8313 68.554 63.9651 66.5225 63.8123 64.3587C63.6492 62.0506 64.3532 59.9281 65.7941 58.3812C67.2351 56.8344 69.2497 56 71.4997 56C73.7338 56 75.7541 56.8494 77.1903 58.3925C78.6406 59.9506 79.3466 62.0694 79.1834 64.3578C79.0269 66.5244 78.1616 68.555 76.746 70.0765C75.291 71.6394 73.4282 72.5 71.4997 72.5ZM83.8587 89H59.1417C58.7443 89.0021 58.3517 88.913 57.9941 88.7396C57.6366 88.5662 57.3236 88.313 57.0792 87.9997C56.82 87.6599 56.641 87.266 56.5556 86.8473C56.4702 86.4285 56.4806 85.9959 56.5861 85.5818C57.3754 82.4122 59.331 79.7834 62.241 77.9806C64.8238 76.3812 68.1116 75.5 71.4997 75.5C74.9544 75.5 78.156 76.3437 80.7537 77.9422C83.6703 79.7356 85.6287 82.3793 86.4143 85.5875C86.5185 86.0019 86.5278 86.4345 86.4414 86.853C86.3551 87.2714 86.1753 87.665 85.9156 88.0043C85.6715 88.3163 85.3592 88.5682 85.0027 88.7407C84.6461 88.9133 84.2548 89.002 83.8587 89ZM53.7811 72.875C50.482 72.875 47.5814 69.8075 47.3124 66.0378C47.1792 64.1066 47.7811 62.3206 48.9999 61.0109C50.2055 59.7144 51.9061 59 53.7811 59C55.6561 59 57.3436 59.7181 58.5557 61.0222C59.7839 62.3422 60.3839 64.1244 60.2432 66.0397C59.9742 69.8084 57.0745 72.875 53.7811 72.875ZM59.9367 75.8234C58.2876 75.0172 56.1473 74.614 53.782 74.614C51.0202 74.614 48.338 75.334 46.2286 76.6409C43.8371 78.125 42.2283 80.2859 41.5786 82.895C41.4836 83.2702 41.4746 83.6622 41.5523 84.0414C41.6301 84.4206 41.7926 84.7774 42.0277 85.085C42.2508 85.3713 42.5366 85.6027 42.8631 85.7614C43.1896 85.92 43.5481 86.0016 43.9111 86H54.3173C54.493 85.9999 54.663 85.9383 54.7979 85.8257C54.9327 85.7132 55.0237 85.5568 55.0551 85.384C55.0654 85.325 55.0786 85.2659 55.0936 85.2078C55.8886 82.0147 57.7514 79.3165 60.5039 77.3497C60.6051 77.2767 60.6865 77.1796 60.7408 77.0672C60.795 76.9548 60.8203 76.8307 60.8145 76.706C60.8086 76.5813 60.7717 76.4601 60.7072 76.3533C60.6426 76.2465 60.5524 76.1575 60.4448 76.0944C60.2976 76.0081 60.1289 75.9172 59.9367 75.8234Z" fill="white"/>
</g>
</g>
<defs>
<filter id="filter0_d_2061_6740" x="-3.5" y="0" width="82" height="81" filterUnits="userSpaceOnUse" color-interpolation-filters="sRGB">
<feFlood flood-opacity="0" result="BackgroundImageFix"/>
<feColorMatrix in="SourceAlpha" type="matrix" values="0 0 0 0 0 0 0 0 0 0 0 0 0 0 0 0 0 0 127 0" result="hardAlpha"/>
<feOffset dy="4"/>
<feGaussianBlur stdDeviation="2"/>
<feComposite in2="hardAlpha" operator="out"/>
<feColorMatrix type="matrix" values="0 0 0 0 0 0 0 0 0 0 0 0 0 0 0 0 0 0 0.25 0"/>
<feBlend mode="normal" in2="BackgroundImageFix" result="effect1_dropShadow_2061_6740"/>
<feBlend mode="normal" in="SourceGraphic" in2="effect1_dropShadow_2061_6740" result="shape"/>
</filter>
<filter id="filter1_d_2061_6740" x="34.5" y="52" width="53" height="41" filterUnits="userSpaceOnUse" color-interpolation-filters="sRGB">
<feFlood flood-opacity="0" result="BackgroundImageFix"/>
<feColorMatrix in="SourceAlpha" type="matrix" values="0 0 0 0 0 0 0 0 0 0 0 0 0 0 0 0 0 0 127 0" result="hardAlpha"/>
<feOffset dx="-3"/>
<feGaussianBlur stdDeviation="2"/>
<feComposite in2="hardAlpha" operator="out"/>
<feColorMatrix type="matrix" values="0 0 0 0 0 0 0 0 0 0 0 0 0 0 0 0 0 0 0.32 0"/>
<feBlend mode="normal" in2="BackgroundImageFix" result="effect1_dropShadow_2061_6740"/>
<feBlend mode="normal" in="SourceGraphic" in2="effect1_dropShadow_2061_6740" result="shape"/>
</filter>
<clipPath id="clip0_2061_6740">
<rect width="89" height="89" fill="white" transform="translate(0.5)"/>
</clipPath>
</defs>
</svg>
