<svg width="89" height="89" viewBox="0 0 89 89" fill="none" xmlns="http://www.w3.org/2000/svg">
<g filter="url(#filter0_i_881_1646)">
<path d="M74 36.5915C74 16.393 57.424 0 37 0C16.576 0 0 16.393 0 36.5915C0 54.3018 12.728 69.0481 29.6 72.4511V47.5689H22.2V36.5915H29.6V27.4436C29.6 20.3815 35.409 14.6366 42.55 14.6366H51.8V25.614H44.4C42.365 25.614 40.7 27.2607 40.7 29.2732V36.5915H51.8V47.5689H40.7V73C59.385 71.1704 74 55.5825 74 36.5915Z" fill="white"/>
</g>
<g filter="url(#filter1_i_881_1646)">
<path d="M70.9997 72.5C69.0722 72.5 67.2085 71.6394 65.7498 70.0775C64.3313 68.554 63.4651 66.5225 63.3123 64.3587C63.1492 62.0506 63.8532 59.9281 65.2941 58.3812C66.7351 56.8344 68.7497 56 70.9997 56C73.2338 56 75.2541 56.8494 76.6903 58.3925C78.1406 59.9506 78.8466 62.0694 78.6834 64.3578C78.5269 66.5244 77.6616 68.555 76.246 70.0765C74.791 71.6394 72.9282 72.5 70.9997 72.5ZM83.3587 89H58.6417C58.2443 89.0021 57.8517 88.913 57.4941 88.7396C57.1366 88.5662 56.8236 88.313 56.5792 87.9997C56.32 87.6599 56.141 87.266 56.0556 86.8473C55.9702 86.4285 55.9806 85.9959 56.0861 85.5818C56.8754 82.4122 58.831 79.7834 61.741 77.9806C64.3238 76.3812 67.6116 75.5 70.9997 75.5C74.4544 75.5 77.656 76.3437 80.2537 77.9422C83.1703 79.7356 85.1287 82.3793 85.9143 85.5875C86.0185 86.0019 86.0278 86.4345 85.9414 86.853C85.8551 87.2714 85.6753 87.665 85.4156 88.0043C85.1715 88.3163 84.8592 88.5682 84.5027 88.7407C84.1461 88.9133 83.7548 89.002 83.3587 89ZM53.2811 72.875C49.982 72.875 47.0814 69.8075 46.8124 66.0378C46.6792 64.1066 47.2811 62.3206 48.4999 61.0109C49.7055 59.7144 51.4061 59 53.2811 59C55.1561 59 56.8436 59.7181 58.0557 61.0222C59.2839 62.3422 59.8839 64.1244 59.7432 66.0397C59.4742 69.8084 56.5745 72.875 53.2811 72.875ZM59.4367 75.8234C57.7876 75.0172 55.6473 74.614 53.282 74.614C50.5202 74.614 47.838 75.334 45.7286 76.6409C43.3371 78.125 41.7283 80.2859 41.0786 82.895C40.9836 83.2702 40.9746 83.6622 41.0523 84.0414C41.1301 84.4206 41.2926 84.7774 41.5277 85.085C41.7508 85.3713 42.0366 85.6027 42.3631 85.7614C42.6896 85.92 43.0481 86.0016 43.4111 86H53.8173C53.993 85.9999 54.163 85.9383 54.2979 85.8257C54.4327 85.7132 54.5237 85.5568 54.5551 85.384C54.5654 85.325 54.5786 85.2659 54.5936 85.2078C55.3886 82.0147 57.2514 79.3165 60.0039 77.3497C60.1051 77.2767 60.1865 77.1796 60.2408 77.0672C60.295 76.9548 60.3203 76.8307 60.3145 76.706C60.3086 76.5813 60.2717 76.4601 60.2072 76.3533C60.1426 76.2465 60.0524 76.1575 59.9448 76.0944C59.7976 76.0081 59.6289 75.9172 59.4367 75.8234Z" fill="white"/>
</g>
<defs>
<filter id="filter0_i_881_1646" x="0" y="0" width="74" height="77" filterUnits="userSpaceOnUse" color-interpolation-filters="sRGB">
<feFlood flood-opacity="0" result="BackgroundImageFix"/>
<feBlend mode="normal" in="SourceGraphic" in2="BackgroundImageFix" result="shape"/>
<feColorMatrix in="SourceAlpha" type="matrix" values="0 0 0 0 0 0 0 0 0 0 0 0 0 0 0 0 0 0 127 0" result="hardAlpha"/>
<feOffset dy="4"/>
<feGaussianBlur stdDeviation="2"/>
<feComposite in2="hardAlpha" operator="arithmetic" k2="-1" k3="1"/>
<feColorMatrix type="matrix" values="0 0 0 0 0 0 0 0 0 0 0 0 0 0 0 0 0 0 0.25 0"/>
<feBlend mode="normal" in2="shape" result="effect1_innerShadow_881_1646"/>
</filter>
<filter id="filter1_i_881_1646" x="38" y="56" width="48" height="33" filterUnits="userSpaceOnUse" color-interpolation-filters="sRGB">
<feFlood flood-opacity="0" result="BackgroundImageFix"/>
<feBlend mode="normal" in="SourceGraphic" in2="BackgroundImageFix" result="shape"/>
<feColorMatrix in="SourceAlpha" type="matrix" values="0 0 0 0 0 0 0 0 0 0 0 0 0 0 0 0 0 0 127 0" result="hardAlpha"/>
<feOffset dx="-3"/>
<feGaussianBlur stdDeviation="2"/>
<feComposite in2="hardAlpha" operator="arithmetic" k2="-1" k3="1"/>
<feColorMatrix type="matrix" values="0 0 0 0 0 0 0 0 0 0 0 0 0 0 0 0 0 0 0.32 0"/>
<feBlend mode="normal" in2="shape" result="effect1_innerShadow_881_1646"/>
</filter>
</defs>
</svg>
