<svg width="56" height="49" viewBox="0 0 56 49" fill="none" xmlns="http://www.w3.org/2000/svg">
<g id="Group">
<path id="Vector" d="M47.2963 26.2288C47.7469 25.7781 48 25.1669 48 24.5295C48 23.8922 47.7469 23.281 47.2963 22.8303L33.6998 9.23376C33.4781 9.0042 33.2129 8.8211 32.9196 8.69513C32.6264 8.56917 32.311 8.50286 31.9919 8.50009C31.6727 8.49732 31.3562 8.55813 31.0609 8.67898C30.7655 8.79983 30.4971 8.97829 30.2715 9.20396C30.0458 9.42963 29.8673 9.69799 29.7465 9.99337C29.6256 10.2887 29.5648 10.6052 29.5676 10.9244C29.5704 11.2435 29.6367 11.5589 29.7626 11.8521C29.8886 12.1454 30.0717 12.4106 30.3012 12.6323L39.795 22.126L7.96566 22.126C7.32822 22.126 6.71688 22.3793 6.26614 22.83C5.8154 23.2808 5.56218 23.8921 5.56218 24.5295C5.56218 25.167 5.8154 25.7783 6.26614 26.2291C6.71688 26.6798 7.32822 26.933 7.96566 26.933L39.795 26.933L30.3012 36.4268C29.8634 36.8801 29.6212 37.4872 29.6267 38.1174C29.6321 38.7476 29.8849 39.3504 30.3305 39.796C30.7762 40.2417 31.379 40.4944 32.0092 40.4999C32.6393 40.5054 33.2465 40.2631 33.6998 39.8253L47.2963 26.2288Z" fill="white"/>
</g>
</svg>
